<?xml version="1.0" encoding="UTF-8"?>
<svg version="1.1" xmlns="http://www.w3.org/2000/svg" width="500" height="500">
<path d="M0 0 C165 0 330 0 500 0 C500 165 500 330 500 500 C335 500 170 500 0 500 C0 335 0 170 0 0 Z " fill="#FEFEFE" transform="translate(0,0)"/>
<path d="M0 0 C0.66 0 1.32 0 2 0 C2.30067383 0.58152832 2.60134766 1.16305664 2.91113281 1.76220703 C8.61096787 12.77197914 14.36203511 23.74827606 20.3125 34.625 C21.05874634 35.99301758 21.05874634 35.99301758 21.82006836 37.38867188 C23.9668871 41.31715288 26.12592891 45.23611233 28.34375 49.125 C28.85168091 50.02871338 28.85168091 50.02871338 29.36987305 50.95068359 C30.23378421 52.48518315 31.11040939 54.01250677 31.98828125 55.5390625 C33.19444734 58.47298002 32.99929363 59.05792049 32 62 C30.98902534 64.11971157 29.92917717 66.21634631 28.83984375 68.296875 C28.37584923 69.18732513 28.37584923 69.18732513 27.90248108 70.09576416 C26.91812406 71.98261543 25.92791055 73.86632041 24.9375 75.75 C24.26718876 77.03234863 23.59726252 78.31489859 22.92773438 79.59765625 C21.28960965 82.73411533 19.64621997 85.86778074 18 89 C17.34 89 16.68 89 16 89 C14.03770984 85.27290256 12.08086788 81.54297112 10.125 77.8125 C9.56941406 76.75740234 9.01382813 75.70230469 8.44140625 74.61523438 C7.90644531 73.59365234 7.37148437 72.57207031 6.8203125 71.51953125 C6.32805176 70.58214111 5.83579102 69.64475098 5.32861328 68.67895508 C4.0784712 66.15822574 3.0041562 63.62705595 2 61 C1.34 61 0.68 61 0 61 C-0.39372803 62.28100586 -0.39372803 62.28100586 -0.79541016 63.58789062 C-2.03887143 67.11010683 -3.55692909 70.27734768 -5.2734375 73.59375 C-5.59293365 74.21318481 -5.91242981 74.83261963 -6.24160767 75.4708252 C-7.28144862 77.48298375 -8.32794094 79.49158931 -9.375 81.5 C-10.10557361 82.9087998 -10.83604131 84.31765452 -11.56640625 85.7265625 C-16.07428552 94.40275289 -20.69271709 103.01116711 -25.41943359 111.5703125 C-30.12873762 120.13900255 -34.58165114 128.83452976 -39.04302979 137.53381348 C-43.21609052 145.6662711 -47.449103 153.75124201 -51.875 161.75 C-57.5343538 171.98399812 -62.85185754 182.38477708 -68.17388916 192.79653931 C-73.34724472 202.91247832 -78.5970947 212.97173577 -84.12109375 222.90234375 C-87.61380797 229.19552252 -90.76958344 235.53916689 -94 242 C-31.3 241.67 31.4 241.34 96 241 C90.555 231.1 90.555 231.1 85 221 C80 211 80 211 80 209 C90.56 209 101.12 209 112 209 C120.26488223 223.94036403 128.18541835 239.01989085 135.94287109 254.2277832 C136.51096245 255.33950897 136.51096245 255.33950897 137.0905304 256.47369385 C137.80277737 257.8680777 138.51348351 259.26325015 139.22233582 260.65936279 C140.64575213 263.44619317 142.1021948 266.16673587 143.73803711 268.83569336 C145 271 145 271 145 273 C49.96 273 -45.08 273 -143 273 C-137.63184183 262.26368366 -132.24471443 251.54564003 -126.75 240.875 C-126.38116699 240.15812012 -126.01233398 239.44124023 -125.63232422 238.70263672 C-120.74817579 229.21769183 -115.76246929 219.80259692 -110.59863281 210.46630859 C-105.67491612 201.51394489 -101.04102992 192.41610285 -96.38522339 183.32269287 C-92.05090371 174.86186255 -87.6676475 166.44272428 -83.0625 158.125 C-77.83802284 148.68581858 -72.91059749 139.10473318 -68 129.5 C-62.6525856 119.04088812 -57.23728107 108.6411776 -51.546875 98.36328125 C-47.03105283 90.16056864 -42.76689314 81.8338596 -38.5 73.5 C-33.79599646 64.31240055 -29.06280047 55.15615493 -24.0625 46.125 C-15.66253573 30.9529018 -7.8840825 15.44426983 0 0 Z " fill="#181D23" transform="translate(193,114)"/>
<path d="M0 0 C28.71 0 57.42 0 87 0 C93.85426084 12.56614488 100.59861126 25.19722252 107 38 C77.96 38 48.92 38 19 38 C15.04 30.41 11.08 22.82 7 15 C4.0695925 9.60704559 4.0695925 9.60704559 1.109375 4.23046875 C0 2 0 2 0 0 Z " fill="#A6A6A6" transform="translate(319,334)"/>
<path d="M0 0 C1.8871875 0.061875 1.8871875 0.061875 3.8125 0.125 C5.28373364 3.06746727 4.93174765 5.67685022 4.92602539 8.96142578 C4.92617142 9.66397491 4.92631744 10.36652405 4.9264679 11.09036255 C4.92577014 13.41704373 4.91798419 15.74364527 4.91015625 18.0703125 C4.90829158 19.68171139 4.90686791 21.29311084 4.90586853 22.9045105 C4.9020472 27.14928752 4.89222018 31.39403042 4.88116455 35.63879395 C4.87094218 39.96882668 4.86636914 44.29886493 4.86132812 48.62890625 C4.85059758 57.12761984 4.83352575 65.62630568 4.8125 74.125 C0.33995503 75.61584832 -3.71495503 75.61584832 -8.1875 74.125 C-8.1875 73.465 -8.1875 72.805 -8.1875 72.125 C-10.6625 72.62 -10.6625 72.62 -13.1875 73.125 C-13.1875 73.785 -13.1875 74.445 -13.1875 75.125 C-22.53669473 78.37689382 -30.34252105 77.9168478 -39.4140625 73.8125 C-43.86618502 71.10360292 -46.56759594 67.56934978 -49.1875 63.125 C-49.73277344 62.21234375 -50.27804688 61.2996875 -50.83984375 60.359375 C-52.50329588 56.36708989 -52.7246229 53.09448416 -52.6875 48.8125 C-52.68250488 48.0599292 -52.67750977 47.3073584 -52.67236328 46.53198242 C-52.4786571 40.35275513 -51.17210702 35.96345138 -47.1875 31.125 C-46.51847656 30.25294922 -46.51847656 30.25294922 -45.8359375 29.36328125 C-42.07268694 25.02187767 -37.80552764 23.08298737 -32.1875 22.125 C-25.8411578 21.74421947 -19.3799758 21.48255122 -13.1875 23.125 C-11.5625 24.625 -11.5625 24.625 -10.1875 26.125 C-9.1975 26.455 -8.2075 26.785 -7.1875 27.125 C-7.20321045 26.37814941 -7.2189209 25.63129883 -7.23510742 24.86181641 C-7.29731077 21.49128739 -7.3364442 18.12087888 -7.375 14.75 C-7.40013672 13.574375 -7.42527344 12.39875 -7.45117188 11.1875 C-7.46083984 10.06601563 -7.47050781 8.94453125 -7.48046875 7.7890625 C-7.4961792 6.75217285 -7.51188965 5.7152832 -7.52807617 4.64697266 C-7.35949097 3.39859619 -7.35949097 3.39859619 -7.1875 2.125 C-4.09861478 0.06574319 -3.47814073 -0.1140374 0 0 Z " fill="#1E2329" transform="translate(282.1875,233.875)"/>
<path d="M0 0 C2.8515625 0.5078125 2.8515625 0.5078125 5.9140625 3.0078125 C8.38607652 6.88186432 10.8515625 11.88625882 10.8515625 16.5078125 C11.5115625 16.5078125 12.1715625 16.5078125 12.8515625 16.5078125 C13.08939453 17.41660156 13.08939453 17.41660156 13.33203125 18.34375 C14.57893448 22.82157927 15.95212181 26.91215458 18.1640625 31.0078125 C21.03124233 36.44081691 22.75968705 42.12654297 24.609375 47.96044922 C26.2123217 52.90321427 28.16539278 57.16898008 30.87109375 61.6171875 C32.60606187 64.96270371 32.8515625 67.74909335 32.8515625 71.5078125 C31.8515625 73.5078125 31.8515625 73.5078125 29.8515625 74.5078125 C26.12169728 74.77423144 23.40510179 74.6923256 19.8515625 73.5078125 C18.75390625 71.6171875 18.75390625 71.6171875 17.7890625 69.2578125 C17.45132813 68.44828125 17.11359375 67.63875 16.765625 66.8046875 C16.06326858 65.03979188 15.36317643 63.27399505 14.6640625 61.5078125 C14.01725947 59.54385212 14.01725947 59.54385212 12.8515625 58.5078125 C10.40547252 58.34800813 7.98425192 58.24851803 5.53515625 58.19140625 C4.80410172 58.17062515 4.07304718 58.14984406 3.31983948 58.12843323 C0.97634594 58.06286226 -1.36726289 58.00401818 -3.7109375 57.9453125 C-5.29623605 57.90213442 -6.88152279 57.85852037 -8.46679688 57.81445312 C-12.36055787 57.7071733 -16.25443522 57.6059276 -20.1484375 57.5078125 C-20.4475 58.72597656 -20.7465625 59.94414062 -21.0546875 61.19921875 C-21.83420013 64.31246592 -22.66056122 67.39041249 -23.6484375 70.4453125 C-23.885625 71.19683594 -24.1228125 71.94835937 -24.3671875 72.72265625 C-25.1484375 74.5078125 -25.1484375 74.5078125 -27.1484375 75.5078125 C-34.61510417 75.86336806 -34.61510417 75.86336806 -38.1484375 73.5078125 C-37.6319851 65.63191333 -35.69004008 58.59101766 -32.1484375 51.5078125 C-31.4884375 51.5078125 -30.8284375 51.5078125 -30.1484375 51.5078125 C-29.97828125 50.68539062 -29.808125 49.86296875 -29.6328125 49.015625 C-27.48715171 39.13188964 -24.86359875 30.89004901 -19.1484375 22.5078125 C-18.07354964 19.50988309 -17.14163457 16.48534569 -16.21875 13.4375 C-15.90679687 12.42945313 -15.59484375 11.42140625 -15.2734375 10.3828125 C-14.96664062 9.36960938 -14.65984375 8.35640625 -14.34375 7.3125 C-11.2968801 0.16330854 -7.23359166 -0.2639997 0 0 Z " fill="#21262B" transform="translate(197.1484375,234.4921875)"/>
<path d="M0 0 C4.36470991 4.48267504 7.36660615 9.13210057 8.3125 15.375 C8.9725 15.705 9.6325 16.035 10.3125 16.375 C10.3125 20.005 10.3125 23.635 10.3125 27.375 C9.6525 27.375 8.9925 27.375 8.3125 27.375 C8.29832031 27.94347656 8.28414063 28.51195312 8.26953125 29.09765625 C7.81123616 36.51708219 5.28730304 40.40019696 0.125 45.5625 C-7.95800416 50.77154713 -15.51539464 52.62284941 -25 50.97265625 C-31.61575532 49.21534624 -35.92416923 45.11920093 -40.6875 40.375 C-41.24308594 39.859375 -41.79867188 39.34375 -42.37109375 38.8125 C-46.34789236 34.46988312 -46.01382284 27.72289624 -45.85546875 22.203125 C-45.80003906 21.26984375 -45.74460937 20.3365625 -45.6875 19.375 C-45.64238281 18.52421875 -45.59726562 17.6734375 -45.55078125 16.796875 C-44.62532057 9.15281012 -40.33112645 4.38299617 -34.6875 -0.625 C-25.72039831 -6.33466475 -8.90323833 -5.38335341 0 0 Z " fill="#21262B" transform="translate(384.6875,259.625)"/>
<path d="M0 0 C1.82988968 -0.00175232 1.82988968 -0.00175232 3.69674683 -0.00354004 C7.03468174 0.00107386 10.36863917 0.04112556 13.70586991 0.09705162 C17.19577657 0.14712706 20.68573862 0.15176635 24.1759491 0.16125488 C30.78137006 0.18610172 37.38572941 0.25172347 43.99068326 0.3320508 C51.5116666 0.42152926 59.03270116 0.46547037 66.55408442 0.50561428 C82.02259195 0.58919329 97.49004082 0.7298683 112.95776367 0.90820312 C113.96545888 2.67466883 114.96368082 4.44654136 115.95776367 6.22070312 C116.51463867 7.20683594 117.07151367 8.19296875 117.64526367 9.20898438 C118.95776367 11.90820312 118.95776367 11.90820312 118.95776367 14.90820312 C73.41776367 14.90820312 27.87776367 14.90820312 -19.04223633 14.90820312 C-15.07421739 3.00414632 -12.93107454 -0.32317078 0 0 Z " fill="#A6A6A6" transform="translate(158.042236328125,333.091796875)"/>
<path d="M0 0 C2.375 1 2.375 1 4 2 C4 2.99 4 3.98 4 5 C4.86625 4.2884375 4.86625 4.2884375 5.75 3.5625 C10.0538483 0.57371646 14.28492565 0.83803307 19.4375 0.8125 C20.73558594 0.79832031 22.03367187 0.78414062 23.37109375 0.76953125 C29.14485107 1.13621767 32.82164819 3.03592264 37 7 C40.83780194 12.73744972 42.15123419 16.96504226 42.1328125 23.78125 C42.13376923 24.55053833 42.13472595 25.31982666 42.13571167 26.11242676 C42.13639254 27.73982831 42.13454473 29.36723257 42.13037109 30.99462891 C42.1250215 33.48997073 42.13031919 35.98513255 42.13671875 38.48046875 C42.13605795 40.05989623 42.13477675 41.6393236 42.1328125 43.21875 C42.13483673 43.9677356 42.13686096 44.71672119 42.13894653 45.48840332 C42.11496122 50.77007757 42.11496122 50.77007757 41 53 C40.34 53 39.68 53 39 53 C39 53.66 39 54.32 39 55 C37.741875 55.020625 36.48375 55.04125 35.1875 55.0625 C34.12595703 55.07990234 34.12595703 55.07990234 33.04296875 55.09765625 C31 55 31 55 28 54 C27.97494385 53.02651611 27.9498877 52.05303223 27.92407227 51.05004883 C27.82962722 47.42508653 27.72949833 43.80029934 27.62768555 40.17553711 C27.58447661 38.60917264 27.54279209 37.04276533 27.50268555 35.47631836 C27.44464129 33.2197582 27.38104698 30.96341092 27.31640625 28.70703125 C27.29969376 28.01100296 27.28298126 27.31497467 27.26576233 26.59785461 C27.15591581 22.96127203 26.84278009 19.54207573 26 16 C25.071875 15.7834375 25.071875 15.7834375 24.125 15.5625 C22 15 22 15 20 14 C18.46331135 13.77532169 16.92031946 13.59203195 15.375 13.4375 C14.55773437 13.35371094 13.74046875 13.26992188 12.8984375 13.18359375 C12.27195312 13.12300781 11.64546875 13.06242187 11 13 C10.67 13.99 10.34 14.98 10 16 C9.34 16.33 8.68 16.66 8 17 C7.67 17.99 7.34 18.98 7 20 C6.34 20 5.68 20 5 20 C4.9906543 20.95366455 4.98130859 21.9073291 4.97167969 22.88989258 C4.93179567 26.42942962 4.86604341 29.96809593 4.79248047 33.50708008 C4.76426122 35.03854178 4.74305131 36.57014939 4.72900391 38.10180664 C4.70758574 40.30430849 4.66094862 42.50505459 4.609375 44.70703125 C4.60753204 45.73374687 4.60753204 45.73374687 4.60565186 46.78120422 C4.50875856 49.9281828 4.37999918 51.59552266 2.18457031 53.93237305 C-1.01686915 55.49695673 -3.49401656 55.38247092 -7 55 C-8.69355774 53.78471375 -8.69355774 53.78471375 -10 52 C-10.36076355 49.74104309 -10.36076355 49.74104309 -10.34057617 47.06958008 C-10.34034958 46.06876907 -10.34012299 45.06795807 -10.33988953 44.03681946 C-10.32440567 42.95861435 -10.30892181 41.88040924 -10.29296875 40.76953125 C-10.28872391 39.66397385 -10.28447906 38.55841644 -10.28010559 37.4193573 C-10.26329437 33.88349188 -10.22563685 30.34819355 -10.1875 26.8125 C-10.17245636 24.41732593 -10.1587674 22.02214294 -10.14648438 19.62695312 C-10.11338285 13.75110815 -10.06315893 7.87559458 -10 2 C-6.44859386 0.07121908 -4.07572461 -0.33964372 0 0 Z " fill="#24292F" transform="translate(411,255)"/>
<path d="M0 0 C2.1949236 1.58965942 2.91022308 2.47162682 3.36749268 5.1628418 C3.36384705 5.99984619 3.36020142 6.83685059 3.35644531 7.69921875 C3.35944641 8.65030518 3.36244751 9.6013916 3.36553955 10.58129883 C3.35319275 11.60634521 3.34084595 12.6313916 3.328125 13.6875 C3.32625183 14.74155029 3.32437866 15.79560059 3.32244873 16.8815918 C3.31572409 19.110872 3.3018015 21.34014032 3.28125 23.56933594 C3.25012352 26.98643937 3.24028205 30.40308142 3.234375 33.8203125 C3.22520386 35.98438064 3.21482774 38.14844407 3.203125 40.3125 C3.19675018 41.85006958 3.19675018 41.85006958 3.19024658 43.41870117 C3.18063904 44.3697876 3.17103149 45.32087402 3.16113281 46.30078125 C3.15430481 47.13778564 3.14747681 47.97479004 3.14044189 48.8371582 C3 51 3 51 2 54 C-0.75078884 54.91692961 -2.35948913 55.10886083 -5.1875 55.0625 C-6.445625 55.041875 -7.70375 55.02125 -9 55 C-10.81725255 51.88372945 -11.2455605 49.63873608 -11.22705078 46.04785156 C-11.22689972 45.06713684 -11.22674866 44.08642212 -11.22659302 43.07598877 C-11.21627045 42.02481873 -11.20594788 40.97364868 -11.1953125 39.890625 C-11.1924826 38.80867859 -11.18965271 37.72673218 -11.18673706 36.61199951 C-11.17554609 33.15788696 -11.1504432 29.70403412 -11.125 26.25 C-11.11496881 23.90755583 -11.1058432 21.56510759 -11.09765625 19.22265625 C-11.0756103 13.48168229 -11.04214334 7.7408597 -11 2 C-7.17295376 -0.11118375 -4.39525816 -0.39956892 0 0 Z " fill="#2B3034" transform="translate(330,255)"/>
<path d="M0 0 C4.46199255 2.56502714 7.06612822 5.05967804 8.67578125 10.08984375 C9.69683652 16.10272476 7.65524093 19.36492942 4.37890625 24.171875 C1.91785937 26.94337504 -0.04757092 27.94868594 -3.7265625 28.35546875 C-11.00410271 28.31061488 -16.00815461 27.45819705 -21.32421875 22.08984375 C-21.69820722 19.27745049 -21.8071489 17.1139222 -21.63671875 14.33984375 C-21.61416016 13.64246094 -21.59160156 12.94507813 -21.56835938 12.2265625 C-21.50968923 10.5133944 -21.42001131 8.80133752 -21.32421875 7.08984375 C-20.66421875 6.75984375 -20.00421875 6.42984375 -19.32421875 6.08984375 C-18.87046875 5.28546875 -18.41671875 4.48109375 -17.94921875 3.65234375 C-14.12529751 -2.37768589 -6.21082747 -2.43213916 0 0 Z " fill="#F3F4F4" transform="translate(265.32421875,268.91015625)"/>
<path d="M0 0 C3.61717848 2.32532902 5.25464492 3.57643477 6.625 7.6875 C7.35259384 14.5101832 6.87410861 19.20838627 2.625 24.6875 C-2.06495744 28.06863211 -6.77368542 28.45225513 -12.375 27.6875 C-16.34155774 25.99960309 -17.59910353 24.49299244 -19.375 20.6875 C-20.365 20.3575 -21.355 20.0275 -22.375 19.6875 C-23.43941394 9.55022439 -23.43941394 9.55022439 -20.921875 5.14453125 C-15.09011206 -1.5815987 -8.42109728 -3.27487116 0 0 Z " fill="#F4F4F4" transform="translate(374.375,269.3125)"/>
<path d="M0 0 C2 2 2 2 2.24050903 4.17666626 C2.23606781 5.07823456 2.23162659 5.97980286 2.22705078 6.90869141 C2.22682419 8.44005234 2.22682419 8.44005234 2.22659302 10.00234985 C2.21627045 11.10759003 2.20594788 12.2128302 2.1953125 13.3515625 C2.1924826 14.4807309 2.18965271 15.60989929 2.18673706 16.77328491 C2.17551462 20.39062971 2.15040622 24.00772966 2.125 27.625 C2.11497287 30.0729131 2.10584656 32.52083007 2.09765625 34.96875 C2.07556857 40.97925064 2.04207074 46.98960783 2 53 C0.18757948 53.02687279 -1.62495233 53.04633715 -3.4375 53.0625 C-4.44683594 53.07410156 -5.45617187 53.08570313 -6.49609375 53.09765625 C-9 53 -9 53 -10 52 C-10.10887475 50.44567216 -10.14904333 48.88645854 -10.16113281 47.32836914 C-10.17074036 46.33386246 -10.1803479 45.33935577 -10.19024658 44.31471252 C-10.19449646 43.23245895 -10.19874634 42.15020538 -10.203125 41.03515625 C-10.20882507 39.9315123 -10.21452515 38.82786835 -10.22039795 37.69078064 C-10.22986397 35.35123661 -10.23638826 33.01167916 -10.24023438 30.67211914 C-10.24994912 27.08130825 -10.28096177 23.49106723 -10.3125 19.90039062 C-10.31902865 17.63281592 -10.32427966 15.3652371 -10.328125 13.09765625 C-10.3404718 12.01742691 -10.3528186 10.93719757 -10.36553955 9.82423401 C-10.36253845 8.82657516 -10.35953735 7.82891632 -10.35644531 6.80102539 C-10.36009094 5.92023819 -10.36373657 5.03945099 -10.36749268 4.13197327 C-10.24622009 3.42842209 -10.12494751 2.72487091 -10 2 C-6.32653229 -0.44897847 -4.33643601 -0.31537716 0 0 Z " fill="#191F23" transform="translate(307,255)"/>
<path d="M0 0 C0.66 0 1.32 0 2 0 C2.25523437 1.051875 2.25523437 1.051875 2.515625 2.125 C3.86746834 7.41732286 5.3201599 12.19915549 8.03515625 16.953125 C9.38824219 19.82363931 10.12819017 22.9486656 11 26 C4.4 26 -2.2 26 -9 26 C-8 18 -8 18 -7 15 C-6.34 15 -5.68 15 -5 15 C-4.9175 14.01 -4.835 13.02 -4.75 12 C-4.13691993 7.52543052 -2.18031955 3.90429315 0 0 Z " fill="#F3F4F4" transform="translate(194,253)"/>
<path d="M0 0 C1.71875 1.23828125 1.71875 1.23828125 3 3 C3.36328125 5.41015625 3.36328125 5.41015625 3.3125 8.0625 C3.30863281 8.94035156 3.30476563 9.81820312 3.30078125 10.72265625 C3 13 3 13 1 15 C-1.09375 15.44921875 -1.09375 15.44921875 -3.5 15.6875 C-4.2940625 15.77386719 -5.088125 15.86023438 -5.90625 15.94921875 C-8 16 -8 16 -10 15 C-10 14.34 -10 13.68 -10 13 C-11.32 12.67 -12.64 12.34 -14 12 C-14 8.7 -14 5.4 -14 2 C-8.76963152 -1.2689803 -5.83032227 -1.33810675 0 0 Z " fill="#2C3036" transform="translate(309,235)"/>
<path d="M0 0 C1.35645504 0.09706742 2.71150386 0.21943075 4.0625 0.375 C4.84625 0.436875 5.63 0.49875 6.4375 0.5625 C8.0625 1.375 8.0625 1.375 9.3125 3.5625 C10.12658712 6.61532669 10.20881766 9.22917035 10.0625 12.375 C9.4025 12.375 8.7425 12.375 8.0625 12.375 C7.7325 13.695 7.4025 15.015 7.0625 16.375 C5.64626784 16.42947047 4.22941809 16.46800508 2.8125 16.5 C1.62914062 16.53480469 1.62914062 16.53480469 0.421875 16.5703125 C-2.18364317 16.35462391 -3.73736977 15.7671178 -5.9375 14.375 C-7.46964888 11.31070224 -7.16688548 8.7584358 -6.9375 5.375 C-5.42100813 0.92030512 -4.77085632 0.45436727 0 0 Z " fill="#272B31" transform="translate(324.9375,233.625)"/>
<path d="M0 0 C0 0.33 0 0.66 0 1 C-0.969375 1.309375 -1.93875 1.61875 -2.9375 1.9375 C-5.84065792 2.69523342 -5.84065792 2.69523342 -7 4 C-8.96414719 19.90716734 -8.1167172 36.06683853 -7 52 C-4.69 52.66 -2.38 53.32 0 54 C0 54.33 0 54.66 0 55 C-6.47918464 55.3667463 -6.47918464 55.3667463 -8.70918274 53.7964325 C-10.41194426 51.4266965 -10.36252667 49.97436252 -10.34057617 47.06958008 C-10.34034958 46.06876907 -10.34012299 45.06795807 -10.33988953 44.03681946 C-10.32440567 42.95861435 -10.30892181 41.88040924 -10.29296875 40.76953125 C-10.28872391 39.66397385 -10.28447906 38.55841644 -10.28010559 37.4193573 C-10.26329437 33.88349188 -10.22563685 30.34819355 -10.1875 26.8125 C-10.17245636 24.41732593 -10.1587674 22.02214294 -10.14648438 19.62695312 C-10.11338285 13.75110815 -10.06315893 7.87559458 -10 2 C-6.48375245 0.05841983 -4.0284349 -0.18311068 0 0 Z " fill="#3C3D43" transform="translate(411,255)"/>
<path d="M0 0 C0.33 0 0.66 0 1 0 C1 8.25 1 16.5 1 25 C-0.65 24.67 -2.3 24.34 -4 24 C-4.33 23.34 -4.66 22.68 -5 22 C-3.68 22.33 -2.36 22.66 -1 23 C-1.00523682 22.3387915 -1.01047363 21.67758301 -1.01586914 20.99633789 C-1.03657656 18.01840149 -1.04964012 15.04048018 -1.0625 12.0625 C-1.07087891 11.02158203 -1.07925781 9.98066406 -1.08789062 8.90820312 C-1.09111328 7.91884766 -1.09433594 6.92949219 -1.09765625 5.91015625 C-1.10289307 4.99371338 -1.10812988 4.07727051 -1.11352539 3.13305664 C-1 1 -1 1 0 0 Z " fill="#A2A3A6" transform="translate(274,236)"/>
<path d="M0 0 C0.59554687 0.21914063 1.19109375 0.43828125 1.8046875 0.6640625 C0.8765625 1.2621875 -0.0515625 1.8603125 -1.0078125 2.4765625 C-5.76297952 5.69574272 -5.76297952 5.69574272 -8.1953125 10.6640625 C-8.8553125 10.6640625 -9.5153125 10.6640625 -10.1953125 10.6640625 C-8.89928957 6.25758454 -5.34194252 -0.81745028 0 0 Z " fill="#5B5D61" transform="translate(243.1953125,259.3359375)"/>
<path d="M0 0 C0.66 0 1.32 0 2 0 C2.33 1.98 2.66 3.96 3 6 C1.35 6.33 -0.3 6.66 -2 7 C-1.34 4.69 -0.68 2.38 0 0 Z " fill="#BEC0C2" transform="translate(194,253)"/>
<path d="M0 0 C0.66 0.33 1.32 0.66 2 1 C-1.75 6.875 -1.75 6.875 -4 8 C-3.50168276 4.31245243 -2.89932357 2.39509338 0 0 Z " fill="#66666A" transform="translate(188,235)"/>
<path d="M0 0 C0.66 1.32 1.32 2.64 2 4 C0.75 5.5625 0.75 5.5625 -1 7 C-3.1875 6.6875 -3.1875 6.6875 -5 6 C-4.360625 5.38125 -3.72125 4.7625 -3.0625 4.125 C-0.96116416 2.17402388 -0.96116416 2.17402388 0 0 Z " fill="#55585E" transform="translate(271,289)"/>
</svg>
